HIERARCHY
ROOT Hips
{
	OFFSET 0.000000 0.000000 0.000000
	CHANNELS 6 Xposition Yposition Zposition Zrotation Yrotation Xrotation 
	JOINT LHipJoint
	{
		OFFSET 0.000000 0.000000 0.000000
		CHANNELS 3 Zrotation Yrotation Xrotation
		JOINT LeftUpLeg
		{
			OFFSET 1.363060 -1.794630 0.839290
			CHANNELS 3 Zrotation Yrotation Xrotation
			JOINT LeftLeg
			{
				OFFSET 2.448110 -6.726130 0.000000
				CHANNELS 3 Zrotation Yrotation Xrotation
				JOINT LeftFoot
				{
					OFFSET 2.562200 -7.039590 0.000000
					CHANNELS 3 Zrotation Yrotation Xrotation
					JOINT LeftToeBase
					{
						OFFSET 0.157640 -0.433110 2.322550
						CHANNELS 3 Zrotation Yrotation Xrotation
						End Site
						{
							OFFSET 0.000000 0.000000 0.000000
						}
					}
				}
			}
		}
	}
	JOINT RHipJoint
	{
		OFFSET 0.000000 0.000000 0.000000
		CHANNELS 3 Zrotation Yrotation Xrotation
		JOINT RightUpLeg
		{
			OFFSET -1.305520 -1.794630 0.839290
			CHANNELS 3 Zrotation Yrotation Xrotation
			JOINT RightLeg
			{
				OFFSET -2.542530 -6.985550 0.000000
				CHANNELS 3 Zrotation Yrotation Xrotation
				JOINT RightFoot
				{
					OFFSET -2.568260 -7.056230 0.000000
					CHANNELS 3 Zrotation Yrotation Xrotation
					JOINT RightToeBase
					{
						OFFSET -0.164730 -0.452590 2.363150
						CHANNELS 3 Zrotation Yrotation Xrotation
						End Site
						{
							OFFSET 0.000000 0.000000 0.000000
						}
					}
				}
			}
		}
	}
	JOINT LowerBack
	{
		OFFSET 0.000000 0.000000 0.000000
		CHANNELS 3 Zrotation Yrotation Xrotation
		JOINT Spine
		{
			OFFSET 0.028270 2.035590 -0.193380
			CHANNELS 3 Zrotation Yrotation Xrotation
			JOINT Spine1
			{
				OFFSET 0.056720 2.048850 -0.042750
				CHANNELS 3 Zrotation Yrotation Xrotation
				JOINT Neck
				{
					OFFSET 0.000000 0.000000 0.000000
					CHANNELS 3 Zrotation Yrotation Xrotation
					JOINT Neck1
					{
						OFFSET -0.054170 1.746240 0.172020
						CHANNELS 3 Zrotation Yrotation Xrotation
						JOINT Head
						{
							OFFSET 0.104070 1.761360 -0.123970
							CHANNELS 3 Zrotation Yrotation Xrotation
							End Site
							{
								OFFSET 0.000000 0.000000 0.000000
							}
						}
					}
				}
				JOINT LeftShoulder
				{
					OFFSET 0.000000 0.000000 0.000000
					CHANNELS 3 Zrotation Yrotation Xrotation
					JOINT LeftArm
					{
						OFFSET 3.362410 1.200890 -0.311210
						CHANNELS 3 Zrotation Yrotation Xrotation
						JOINT LeftForeArm
						{
							OFFSET 4.983000 -0.000000 -0.000000
							CHANNELS 3 Zrotation Yrotation Xrotation
							JOINT LeftHand
							{
								OFFSET 3.483560 -0.000000 -0.000000
								CHANNELS 3 Zrotation Yrotation Xrotation
								JOINT LeftFingerBase
								{
									OFFSET 0.000000 0.000000 0.000000
									CHANNELS 3 Zrotation Yrotation Xrotation
									JOINT LeftHandIndex1
									{
										OFFSET 0.715260 -0.000000 -0.000000
										CHANNELS 3 Zrotation Yrotation Xrotation
										End Site
										{
											OFFSET 0.000000 0.000000 0.000000
										}
									}
								}
								JOINT LThumb
								{
									OFFSET 0.000000 0.000000 0.000000
									CHANNELS 3 Zrotation Yrotation Xrotation
									End Site
									{
										OFFSET 0.000000 0.000000 0.000000
									}
								}
							}
						}
					}
				}
				JOINT RightShoulder
				{
					OFFSET 0.000000 0.000000 0.000000
					CHANNELS 3 Zrotation Yrotation Xrotation
					JOINT RightArm
					{
						OFFSET -3.136600 1.374050 -0.404650
						CHANNELS 3 Zrotation Yrotation Xrotation
						JOINT RightForeArm
						{
							OFFSET -5.241900 -0.000000 -0.000000
							CHANNELS 3 Zrotation Yrotation Xrotation
							JOINT RightHand
							{
								OFFSET -3.444170 -0.000000 -0.000000
								CHANNELS 3 Zrotation Yrotation Xrotation
								JOINT RightFingerBase
								{
									OFFSET 0.000000 0.000000 0.000000
									CHANNELS 3 Zrotation Yrotation Xrotation
									JOINT RightHandIndex1
									{
										OFFSET -0.622530 -0.000000 -0.000000
										CHANNELS 3 Zrotation Yrotation Xrotation
										End Site
										{
											OFFSET 0.000000 0.000000 0.000000
										}
									}
								}
								JOINT RThumb
								{
									OFFSET 0.000000 0.000000 0.000000
									CHANNELS 3 Zrotation Yrotation Xrotation
									End Site
									{
										OFFSET 0.000000 0.000000 0.000000
									}
								}
							}
						}
					}
				}
			}
		}
	}
}
MOTION
Frames: 6
Frame Time: 0.033333
0.202759 17.140557 -0.053249 8.029583 28.562568 2.965532 3.258438 29.550172 8.085196 -29.590602 -60.464397 -14.713579 -44.544828 -22.491272 65.824262 -12.146017 -45.268457 59.756965 0.000000 0.000000 0.000000 -5.611185 -29.000878 16.460849 11.169624 11.445317 -21.013582 0.469631 -9.477894 29.219760 0.185750 6.015792 -20.864686 0.000000 0.000000 0.000000 11.939419 3.849431 -18.514524 -18.150538 8.994985 59.475516 -8.167529 -0.273956 -35.773085 14.327797 0.728209 -17.825701 2.187355 0.135973 4.348259 0.000000 0.000000 0.000000 -15.609531 8.429949 7.944231 -56.407889 -3.750730 -1.019597 -18.981882 9.443305 -0.052092 -1.102183 -1.621879 -0.026055 -1.102139 -1.622054 0.000000 0.000000 0.000000 0.000000 0.000000 0.000000 0.000000 -9.105875 -16.403113 6.094035 83.263977 -3.568290 5.643284 168.607163 72.511532 179.949924 -4.506474 7.278367 -0.028470 -4.550546 7.262446 0.000000 0.000000 0.000000 0.000000 0.000000 0.000000 0.000000 
0.201312 17.141088 -0.046108 7.973045 28.789401 3.055732 3.180853 29.616664 7.996353 -29.433299 -60.390615 -14.915801 -44.618867 -22.388763 65.942546 -12.398067 -44.934315 60.242421 0.000000 0.000000 0.000000 -5.490758 -29.022500 16.380028 11.194916 11.432372 -21.079082 0.410072 -9.586383 29.366992 0.207237 5.896645 -20.839623 0.000000 0.000000 0.000000 11.872776 3.822922 -18.242258 -18.009185 8.838212 59.004436 -8.123485 -0.291694 -35.688103 14.283706 0.680891 -17.479155 2.155640 0.129330 4.350524 0.000000 0.000000 0.000000 -15.608697 8.482223 7.945468 -56.443590 -3.809335 -1.039471 -19.079194 9.471233 -0.053258 -1.106908 -1.635388 -0.026639 -1.106851 -1.635572 0.000000 0.000000 0.000000 0.000000 0.000000 0.000000 0.000000 -9.029402 -16.501354 5.987186 83.125707 -3.653523 5.801935 168.662607 72.537502 179.953299 -4.490574 7.285062 -0.026762 -4.534383 7.269292 0.000000 0.000000 0.000000 0.000000 0.000000 0.000000 0.000000 
0.200773 17.141312 -0.038131 7.910632 28.994193 3.151766 3.082729 29.694107 7.894505 -29.258355 -60.290064 -15.145857 -44.682054 -22.254410 66.086138 -12.617508 -44.592298 60.729407 0.000000 0.000000 0.000000 -5.362307 -29.037289 16.298379 11.212636 11.421743 -21.150351 0.359114 -9.688678 29.504318 0.227991 5.787678 -20.821231 0.000000 0.000000 0.000000 11.809677 3.768661 -17.957100 -17.866705 8.648862 58.488657 -8.090583 -0.303369 -35.532360 14.216028 0.627998 -17.173065 2.121655 0.121195 4.358848 0.000000 0.000000 0.000000 -15.518530 8.518295 7.924586 -56.565414 -3.925911 -1.080289 -19.232590 9.496678 -0.054989 -1.112997 -1.656228 -0.027505 -1.112919 -1.656426 0.000000 0.000000 0.000000 0.000000 0.000000 0.000000 0.000000 -9.025094 -16.550448 5.875402 83.083449 -3.560121 5.850018 168.604379 72.460677 179.955186 -4.465446 7.229383 -0.025781 -4.508659 7.213858 0.000000 0.000000 0.000000 0.000000 0.000000 0.000000 0.000000 
0.201101 17.141333 -0.029690 7.842690 29.175909 3.253376 2.965540 29.780780 7.780279 -29.066059 -60.166277 -15.401679 -44.734600 -22.093289 66.249626 -12.806854 -44.244154 61.215553 0.000000 0.000000 0.000000 -5.226738 -29.045209 16.215846 11.223369 11.413287 -21.227012 0.316824 -9.783591 29.629288 0.247653 5.689128 -20.807621 0.000000 0.000000 0.000000 11.749786 3.687438 -17.659064 -17.722148 8.427792 57.927627 -8.069348 -0.308736 -35.304208 14.124629 0.570263 -16.906430 2.085652 0.111685 4.372136 0.000000 0.000000 0.000000 -15.338857 8.537692 7.880866 -56.771363 -4.100136 -1.140885 -19.444738 9.518437 -0.057262 -1.120549 -1.684744 -0.028642 -1.120439 -1.684962 0.000000 0.000000 0.000000 0.000000 0.000000 0.000000 0.000000 -9.093297 -16.550855 5.759371 83.139107 -3.287014 5.787865 168.432940 72.285161 179.955632 -4.430332 7.111160 -0.025503 -4.472618 7.095976 0.000000 0.000000 0.000000 0.000000 0.000000 0.000000 0.000000 
0.202236 17.141114 -0.020884 7.768834 29.334036 3.361493 2.828263 29.877699 7.652610 -28.855889 -60.019304 -15.684469 -44.776005 -21.905559 66.433986 -12.966137 -43.890519 61.700638 0.000000 0.000000 0.000000 -5.083505 -29.045991 16.132184 11.226364 11.406664 -21.309494 0.285848 -9.871110 29.739682 0.266006 5.601862 -20.800457 0.000000 0.000000 0.000000 11.693194 3.575510 -17.346358 -17.574048 8.170190 57.314173 -8.062083 -0.307169 -34.989377 14.006257 0.507409 -16.684224 2.047564 0.100702 4.388793 0.000000 0.000000 0.000000 -15.054637 8.538004 7.809069 -57.072305 -4.341436 -1.223318 -19.729139 9.534034 -0.060149 -1.129927 -1.722642 -0.030086 -1.129776 -1.722888 0.000000 0.000000 0.000000 0.000000 0.000000 0.000000 0.000000 -9.247367 -16.495634 5.639677 83.310909 -2.800267 5.598655 168.131029 72.003117 179.954517 -4.381567 6.919999 -0.025985 -4.422536 6.905276 0.000000 0.000000 0.000000 0.000000 0.000000 0.000000 0.000000 
0.203719 17.140549 -0.011996 7.693698 29.466187 3.470780 2.692993 29.965539 7.519060 -28.659917 -59.869221 -15.954924 -44.801597 -21.717156 66.616658 -13.081260 -43.573802 62.128082 0.000000 0.000000 0.000000 -4.940432 -29.039648 16.045738 11.227927 11.402870 -21.390642 0.257997 -9.950232 29.843202 0.282957 5.526516 -20.799973 0.000000 0.000000 0.000000 11.630700 3.452688 -17.021239 -17.417745 7.897566 56.668021 -8.063837 -0.302895 -34.636135 13.879557 0.444079 -16.477433 2.009049 0.089418 4.406337 0.000000 0.000000 0.000000 -14.733058 8.532564 7.723911 -57.399494 -4.605647 -1.310488 -20.047153 9.543842 -0.063190 -1.140315 -1.764798 -0.031607 -1.140116 -1.765075 0.000000 0.000000 0.000000 0.000000 0.000000 0.000000 0.000000 -9.436806 -16.419289 5.522165 83.532272 -2.222173 5.358818 167.777948 71.690700 179.952947 -4.324035 6.699060 -0.026686 -4.363527 6.684858 0.000000 0.000000 0.000000 0.000000 0.000000 0.000000 0.000000 
